<svg width="60" height="80" viewBox="0 0 60 80" fill="none" xmlns="http://www.w3.org/2000/svg">
<path fill-rule="evenodd" clip-rule="evenodd" d="M20.5906 0.801853C10.6517 3.47016 5.29067 9.41252 5.25772 17.7982L5.24125 22.0174L7.73084 22.414C11.8183 23.0649 15.7237 27.4392 15.7237 31.366C15.7237 32.5044 16.7533 33.3974 20.0291 35.1008L24.3344 37.3389L24.5553 33.2569C24.8173 28.4212 24.0132 26.8588 20.971 26.2919C19.3754 25.9944 18.7187 25.498 18.7187 24.5903C18.7187 23.8854 17.9722 22.4185 17.0595 21.3309C15.0469 18.9315 14.3094 12.3446 15.7282 9.4373C17.6001 5.60201 23.6942 2.46843 29.3023 2.4589C33.1487 2.4519 39.23 4.61236 42.0124 6.9743C44.6637 9.22501 47.92 15.1559 47.92 17.734C47.92 18.5558 48.4284 18.981 49.413 18.981C50.8416 18.981 50.8978 18.5997 50.7233 10.085C50.5616 2.21736 50.3946 1.18894 49.2745 1.1864C48.5782 1.18513 47.8002 1.46988 47.5456 1.81947C46.8575 2.76399 44.3312 2.59937 37.8119 1.18386C31.2094 -0.249454 25.018 -0.386745 20.5906 0.801853ZM0 24.0818C0 24.4397 0.757735 24.9793 1.68469 25.28C5.67028 26.5741 6.2603 27.9737 6.84732 37.5225C7.32727 45.3323 7.64474 46.8902 9.36986 49.884C11.7037 53.9335 15.6743 56.516 21.9451 58.063L26.2062 59.115V67.1911C26.2062 75.8768 25.5256 77.809 22.3277 78.2088C21.4367 78.3201 20.5689 78.7688 20.3997 79.2055C20.1638 79.8138 22.3854 80 29.8879 80C39.5917 80 41.7817 79.4737 37.433 78.1872C34.3002 77.2599 33.6937 75.3842 33.6937 66.6229V59.0489L35.7528 58.6618C43.4762 57.2101 47.7965 54.6263 50.5826 49.7931C52.3219 46.7752 52.6169 45.3349 52.9538 38.2249C53.3904 29.011 54.3577 26.4082 57.7144 25.4147C61.5892 24.2674 60.3448 23.2505 55.4352 23.5517C47.6946 24.0272 45.6738 26.8086 45.6738 36.9886C45.6738 44.7202 44.7004 49.8261 42.8128 51.9936C41.012 54.0612 38.2701 55.6967 35.7528 56.2045L33.6937 56.6202V42.221V27.8218L35.5319 26.262C36.5427 25.4039 37.8905 24.7016 38.5269 24.7016C39.1634 24.7016 39.6837 24.4155 39.6837 24.066C39.6837 23.6763 36.065 23.4303 30.3244 23.4303C25.1767 23.4303 20.9777 23.6452 20.9942 23.9071C21.0099 24.1689 22.1046 24.9615 23.4276 25.6677L25.8319 26.9516L26.0325 41.717C26.1561 50.7745 25.9577 56.4823 25.5204 56.4823C23.9765 56.4823 20.5023 55.0566 18.8348 53.7383C15.3015 50.9461 14.7107 49.0564 14.2262 39.0029C13.7178 28.446 12.877 26.0923 9.00971 24.3946C6.53659 23.3089 0 23.082 0 24.0818ZM35.1912 37.827V42.6888L38.8931 45.7016C40.9289 47.3587 42.7821 48.5555 43.0112 48.361C43.2403 48.1665 43.4215 45.5523 43.414 42.5515L43.4005 37.096L39.6793 35.0303C37.6322 33.8945 35.785 32.9646 35.5746 32.9646C35.3635 32.9646 35.1912 35.1523 35.1912 37.827ZM52.7876 49.4873C52.4552 50.7726 50.8027 52.8243 48.5826 54.7089C46.1679 56.7588 44.925 58.3503 44.925 59.3934C44.925 63.0558 41.358 67.7752 37.2039 69.6096C34.4088 70.844 34.5818 73.4386 37.4375 73.1125C43.0419 72.4731 50.0464 67.9691 52.6334 63.3412C54.4528 60.0862 55.4831 54.9079 54.929 51.8054C54.2185 47.8303 53.436 46.9824 52.7876 49.4873ZM3.56855 63.3151C3.96014 72.2404 4.5202 73.7589 6.78068 72.0224C8.28866 70.8643 11.6842 70.8452 15.4519 71.9735C17.0535 72.4533 19.8194 73.0546 21.5984 73.3095C24.6571 73.7481 24.8196 73.696 24.5837 72.3453C24.401 71.2997 23.531 70.7169 21.3386 70.1696C14.4381 68.4477 8.78134 63.5395 6.65639 57.43C5.99749 55.5371 5.24575 54.5754 4.42362 54.5754C3.31247 54.5754 3.22412 55.4755 3.56855 63.3151Z" fill="url(#paint0_linear_68_81)"/>
<defs>
<linearGradient id="paint0_linear_68_81" x1="30" y1="0" x2="30" y2="80" gradientUnits="userSpaceOnUse">
<stop stop-color="#0D3E69"/>
<stop offset="1" stop-color="#0C3B64"/>
</linearGradient>
</defs>
</svg>
