<svg width="58" height="58" viewBox="0 0 58 58" fill="none" xmlns="http://www.w3.org/2000/svg">
<g filter="url(#filter0_d_70_110)">
<path fill-rule="evenodd" clip-rule="evenodd" d="M29.5814 3.047C17.6347 3.047 7.91968 12.6875 7.91968 24.5411C7.91968 29.2418 9.45111 33.5985 12.0454 37.1431L9.34037 45.124L17.663 42.4794C21.0823 44.7229 25.1796 46.0329 29.5814 46.0329C41.5232 46.0329 51.2408 36.3916 51.2408 24.5411C51.2408 12.6875 41.5232 3.047 29.5814 3.047Z" fill="url(#paint0_linear_70_110)"/>
<path fill-rule="evenodd" clip-rule="evenodd" d="M54 24.357C54 37.8063 43.0112 48.7119 29.4555 48.7119C25.1506 48.7119 21.1062 47.6125 17.5902 45.6813L4 50L8.42994 36.9333C6.19445 33.2625 4.90911 28.9576 4.90911 24.357C4.90911 10.9049 15.8979 0 29.4555 0C43.011 0 54 10.9049 54 24.357ZM29.4555 3.87925C18.0737 3.87925 8.81804 13.064 8.81804 24.3572C8.81804 28.8357 10.277 32.9863 12.7486 36.3634L10.1715 43.9668L18.1006 41.4473C21.3582 43.5848 25.2617 44.8328 29.4553 44.8328C40.8324 44.8328 50.0907 35.6473 50.0907 24.3572C50.0909 13.0639 40.8326 3.87925 29.4555 3.87925ZM41.85 29.9668C41.6979 29.7175 41.2965 29.5682 40.6973 29.2695C40.0952 28.9716 37.1354 27.5257 36.5847 27.3278C36.034 27.1292 35.6298 27.0291 35.2312 27.6258C34.8299 28.223 33.6764 29.5682 33.3243 29.9668C32.9742 30.3661 32.6242 30.4146 32.0222 30.1161C31.4194 29.8181 29.4798 29.1855 27.1826 27.1544C25.3952 25.5697 24.1876 23.6168 23.8347 23.0196C23.4854 22.4231 23.8 22.1002 24.098 21.8022C24.3696 21.5334 24.7007 21.1049 25.0015 20.7577C25.3029 20.4077 25.4028 20.1578 25.6035 19.7592C25.8042 19.3606 25.7043 19.0134 25.5522 18.7147C25.4028 18.4167 24.1987 15.4786 23.6966 14.2821C23.1979 13.089 22.6959 13.1335 22.3431 13.1335C21.9931 13.1335 21.3437 13.2376 21.3437 13.2376C21.3437 13.2376 20.1375 13.387 19.587 13.9841C19.0363 14.5806 17.4821 16.0265 17.4821 18.9618C17.4821 21.8993 19.6362 24.7397 19.937 25.1355C20.2383 25.5347 24.0981 31.7599 30.2155 34.1501C36.3328 36.5397 36.3328 35.7425 37.4363 35.6417C38.5377 35.5446 40.9954 34.1987 41.4974 32.8042C41.9994 31.4098 41.9994 30.2139 41.85 29.9668Z" fill="white"/>
</g>
<defs>
<filter id="filter0_d_70_110" x="0" y="0" width="58" height="58" filterUnits="userSpaceOnUse" color-interpolation-filters="sRGB">
<feFlood flood-opacity="0" result="BackgroundImageFix"/>
<feColorMatrix in="SourceAlpha" type="matrix" values="0 0 0 0 0 0 0 0 0 0 0 0 0 0 0 0 0 0 127 0" result="hardAlpha"/>
<feOffset dy="4"/>
<feGaussianBlur stdDeviation="2"/>
<feComposite in2="hardAlpha" operator="out"/>
<feColorMatrix type="matrix" values="0 0 0 0 0 0 0 0 0 0 0 0 0 0 0 0 0 0 0.25 0"/>
<feBlend mode="normal" in2="BackgroundImageFix" result="effect1_dropShadow_70_110"/>
<feBlend mode="normal" in="SourceGraphic" in2="effect1_dropShadow_70_110" result="shape"/>
</filter>
<linearGradient id="paint0_linear_70_110" x1="29.5803" y1="3.047" x2="29.5803" y2="46.033" gradientUnits="userSpaceOnUse">
<stop stop-color="#4AC14B"/>
<stop offset="1" stop-color="#06853A"/>
</linearGradient>
</defs>
</svg>
